<?xml version="1.0" encoding="UTF-8" standalone="no"?>
<svg
   viewBox="0 0 64 64"
   fill="none"
   role="img"
   aria-labelledby="flow-title flow-desc"
   version="1.1"
   id="svg21"
   sodipodi:docname="favicon.svg"
   inkscape:version="1.4.2 (ebf0e940, 2025-05-08)"
   xmlns:inkscape="http://www.inkscape.org/namespaces/inkscape"
   xmlns:sodipodi="http://sodipodi.sourceforge.net/DTD/sodipodi-0.dtd"
   xmlns:xlink="http://www.w3.org/1999/xlink"
   xmlns="http://www.w3.org/2000/svg"
   xmlns:svg="http://www.w3.org/2000/svg"
   xmlns:rdf="http://www.w3.org/1999/02/22-rdf-syntax-ns#"
   xmlns:cc="http://creativecommons.org/ns#"
   xmlns:dc="http://purl.org/dc/elements/1.1/">
  <sodipodi:namedview
     id="namedview21"
     pagecolor="#505050"
     bordercolor="#eeeeee"
     borderopacity="1"
     inkscape:showpageshadow="0"
     inkscape:pageopacity="0"
     inkscape:pagecheckerboard="0"
     inkscape:deskcolor="#505050"
     inkscape:current-layer="svg21" />
  <title
     id="flow-title">STORM logo option - Scenario flow</title>
  <desc
     id="flow-desc">An abstract S-shaped stochastic flow converging through an optimization node.</desc>
  <defs
     id="defs11">
    <linearGradient
       id="flow-g"
       x1="13"
       y1="10"
       x2="51"
       y2="56"
       gradientUnits="userSpaceOnUse">
      <stop
         offset="0"
         stop-color="#8DC4F0"
         id="stop1" />
      <stop
         offset="0.34"
         stop-color="#5BD4FF"
         id="stop2" />
      <stop
         offset="0.68"
         stop-color="#4F8BFF"
         id="stop3" />
      <stop
         offset="1"
         stop-color="#B58CFF"
         id="stop4" />
    </linearGradient>
    <linearGradient
       id="flow-trace"
       x1="12"
       y1="18"
       x2="52"
       y2="46"
       gradientUnits="userSpaceOnUse"
       gradientTransform="translate(13.390875,-2.0023739)">
      <stop
         offset="0"
         stop-color="#4FE4C1"
         stop-opacity="0.30"
         id="stop5" />
      <stop
         offset="0.5"
         stop-color="#5BD4FF"
         stop-opacity="0.72"
         id="stop6" />
      <stop
         offset="1"
         stop-color="#B58CFF"
         stop-opacity="0.34"
         id="stop7" />
    </linearGradient>
    <radialGradient
       id="flow-field"
       cx="33"
       cy="31"
       r="33"
       gradientUnits="userSpaceOnUse">
      <stop
         offset="0"
         stop-color="#4F8BFF"
         stop-opacity="0.18"
         id="stop8" />
      <stop
         offset="0.55"
         stop-color="#5BD4FF"
         stop-opacity="0.06"
         id="stop9" />
      <stop
         offset="1"
         stop-color="#050810"
         stop-opacity="0"
         id="stop10" />
    </radialGradient>
    <filter
       id="flow-glow"
       x="-16"
       y="-16"
       width="96"
       height="96"
       filterUnits="userSpaceOnUse"
       color-interpolation-filters="sRGB">
      <feGaussianBlur
         stdDeviation="2.4"
         result="blur"
         id="feGaussianBlur10" />
      <feColorMatrix
         in="blur"
         type="matrix"
         values="0 0 0 0 0.25 0 0 0 0 0.63 0 0 0 0 1 0 0 0 0.42 0"
         result="glow"
         id="feColorMatrix10" />
      <feMerge
         id="feMerge11">
        <feMergeNode
           in="glow"
           id="feMergeNode10" />
        <feMergeNode
           in="SourceGraphic"
           id="feMergeNode11" />
      </feMerge>
    </filter>
    <radialGradient
       inkscape:collect="always"
       xlink:href="#flow-g"
       id="radialGradient22"
       cx="32"
       cy="32"
       fx="32"
       fy="32"
       r="48"
       gradientUnits="userSpaceOnUse" />
  </defs>
  <rect
     x="2"
     y="2"
     width="60"
     height="60"
     rx="14"
     fill="#070B14"
     id="rect11" />
  <g
     id="g1"
     transform="translate(0,-1.0845988)">
    <path
       style="baseline-shift:baseline;display:inline;overflow:visible;vector-effect:none;fill:url(#radialGradient22);stroke-linecap:round;stroke-linejoin:round;filter:url(#flow-glow);enable-background:accumulate;stop-color:#000000"
       d="m 31.14535,8.3361067 c -6.471939,-0.088549 -11.423393,1.396328 -16.112147,5.7322523 -2.230833,2.059231 -3.795383,4.27481 -4.33789,6.78711 -0.542508,2.5123 0.219829,5.220458 1.917968,7.197265 3.396278,3.953616 9.607146,5.949996 18.707031,6.833985 0.0026,3e-6 0.0052,3e-6 0.0078,0 8.594279,0.811682 13.506091,3.340054 15.003906,5.363281 0.748908,1.011613 0.89655,1.779348 0.626953,2.927734 -0.268949,1.145628 -1.161134,2.704828 -2.949218,4.410157 -3.280811,3.072427 -8.28457,4.534292 -13.519532,4.277343 -5.237663,-0.257081 -10.573951,-2.252748 -14.236328,-5.527343 -1.19398,-1.068235 -3.269396,-2.604536 -3.269396,-2.604536 0,0 2.708057,5.839635 5.304399,8.227236 4.837623,4.325405 6.855539,4.789474 13.332695,5.107393 6.477157,0.317919 11.643492,-0.827254 16.362771,-5.251578 0.0052,-0.0052 0.01045,-0.0104 0.01564,-0.01563 2.353267,-2.239856 3.98444,-4.651512 4.605469,-7.296875 0.621028,-2.645363 0.02726,-5.491691 -1.611328,-7.705078 C 47.716958,32.37205 41.27877,30.001594 31.873049,29.113276 h 0.0078 c -8.400114,-0.816011 -13.390418,-3.118459 -14.86914,-4.839844 -0.739361,-0.860692 -0.832102,-1.333784 -0.646485,-2.193359 0.185618,-0.859575 0.932396,-2.209231 2.601563,-3.75 l 0.002,-0.002 c 3.311109,-3.062776 8.546221,-4.786312 13.863281,-4.865234 5.31706,-0.07892 10.595189,1.504744 13.884766,4.259765 1.227994,1.02879 4.001687,3.345657 4.001687,3.345657 0,0 -0.903512,-4.319495 -4.82656,-7.959468 C 41.181501,9.1638652 36.438615,8.4085288 31.14535,8.3361067 Z"
       id="path16"
       sodipodi:nodetypes="scssccsscscccsccssccssccscccs"
       transform="rotate(3.7721679,32,32)" />
    <circle
       cx="32"
       cy="32"
       r="4.6999998"
       fill="#070b14"
       stroke="#ddebff"
       stroke-opacity="0.22"
       stroke-width="1"
       id="circle18" />
    <circle
       cx="32"
       cy="32"
       r="2.3499999"
       fill="#5bd4ff"
       id="circle19" />
  </g>
  <metadata
     id="metadata21">
    <rdf:RDF>
      <cc:Work
         rdf:about="">
        <dc:title>STORM logo option - Scenario flow</dc:title>
      </cc:Work>
    </rdf:RDF>
  </metadata>
</svg>
