<?xml version="1.0" encoding="UTF-8" standalone="no"?>
<svg
   viewBox="0 0 64 64"
   fill="none"
   role="img"
   aria-labelledby="flow-title flow-desc"
   version="1.1"
   id="svg21"
   sodipodi:docname="mark.svg"
   inkscape:version="1.4.2 (ebf0e940, 2025-05-08)"
   xmlns:inkscape="http://www.inkscape.org/namespaces/inkscape"
   xmlns:sodipodi="http://sodipodi.sourceforge.net/DTD/sodipodi-0.dtd"
   xmlns:xlink="http://www.w3.org/1999/xlink"
   xmlns="http://www.w3.org/2000/svg"
   xmlns:svg="http://www.w3.org/2000/svg"
   xmlns:rdf="http://www.w3.org/1999/02/22-rdf-syntax-ns#"
   xmlns:cc="http://creativecommons.org/ns#"
   xmlns:dc="http://purl.org/dc/elements/1.1/">
  <sodipodi:namedview
     id="namedview21"
     pagecolor="#505050"
     bordercolor="#eeeeee"
     borderopacity="1"
     inkscape:showpageshadow="0"
     inkscape:pageopacity="0"
     inkscape:pagecheckerboard="0"
     inkscape:deskcolor="#505050"
     inkscape:current-layer="svg21" />
  <title
     id="flow-title">STORM logo option - Scenario flow</title>
  <desc
     id="flow-desc">An abstract S-shaped stochastic flow converging through an optimization node.</desc>
  <defs
     id="defs11">
    <linearGradient
       id="flow-g"
       x1="13"
       y1="10"
       x2="51"
       y2="56"
       gradientUnits="userSpaceOnUse">
      <stop
         offset="0"
         stop-color="#8DC4F0"
         id="stop1" />
      <stop
         offset="0.34"
         stop-color="#5BD4FF"
         id="stop2" />
      <stop
         offset="0.68"
         stop-color="#4F8BFF"
         id="stop3" />
      <stop
         offset="1"
         stop-color="#B58CFF"
         id="stop4" />
    </linearGradient>
    <linearGradient
       id="flow-trace"
       x1="12"
       y1="18"
       x2="52"
       y2="46"
       gradientUnits="userSpaceOnUse">
      <stop
         offset="0"
         stop-color="#4FE4C1"
         stop-opacity="0.30"
         id="stop5" />
      <stop
         offset="0.5"
         stop-color="#5BD4FF"
         stop-opacity="0.72"
         id="stop6" />
      <stop
         offset="1"
         stop-color="#B58CFF"
         stop-opacity="0.34"
         id="stop7" />
    </linearGradient>
    <radialGradient
       id="flow-field"
       cx="33"
       cy="31"
       r="33"
       gradientUnits="userSpaceOnUse">
      <stop
         offset="0"
         stop-color="#4F8BFF"
         stop-opacity="0.18"
         id="stop8" />
      <stop
         offset="0.55"
         stop-color="#5BD4FF"
         stop-opacity="0.06"
         id="stop9" />
      <stop
         offset="1"
         stop-color="#050810"
         stop-opacity="0"
         id="stop10" />
    </radialGradient>
    <filter
       id="flow-glow"
       x="-16"
       y="-16"
       width="96"
       height="96"
       filterUnits="userSpaceOnUse"
       color-interpolation-filters="sRGB">
      <feGaussianBlur
         stdDeviation="2.4"
         result="blur"
         id="feGaussianBlur10" />
      <feColorMatrix
         in="blur"
         type="matrix"
         values="0 0 0 0 0.25 0 0 0 0 0.63 0 0 0 0 1 0 0 0 0.42 0"
         result="glow"
         id="feColorMatrix10" />
      <feMerge
         id="feMerge11">
        <feMergeNode
           in="glow"
           id="feMergeNode10" />
        <feMergeNode
           in="SourceGraphic"
           id="feMergeNode11" />
      </feMerge>
    </filter>
    <radialGradient
       inkscape:collect="always"
       xlink:href="#flow-g"
       id="radialGradient22"
       cx="32"
       cy="32"
       fx="32"
       fy="32"
       r="48"
       gradientUnits="userSpaceOnUse" />
    <radialGradient
       inkscape:collect="always"
       xlink:href="#flow-g"
       id="radialGradient1"
       gradientUnits="userSpaceOnUse"
       cx="32"
       cy="32"
       fx="32"
       fy="32"
       r="48"
       gradientTransform="translate(140.01713,-9.2316146)" />
  </defs>
  <rect
     x="2"
     y="2"
     width="60"
     height="60"
     rx="14"
     fill="#070B14"
     id="rect11" />
  <rect
     x="2"
     y="2"
     width="60"
     height="60"
     rx="14"
     fill="url(#flow-field)"
     stroke="#1E2A44"
     stroke-width="1"
     id="rect12" />
  <g
     opacity="0.72"
     id="g14">
    <path
       d="M13 18C23 9.5 39 9 51 17.5"
       stroke="#1A2238"
       stroke-width="1.4"
       stroke-linecap="round"
       id="path12" />
    <path
       d="M12 32C23 20 41 44 52 32"
       stroke="#1A2238"
       stroke-width="1.4"
       stroke-linecap="round"
       id="path13" />
    <path
       d="M13 46C24 55 40 55 51 46"
       stroke="#1A2238"
       stroke-width="1.4"
       stroke-linecap="round"
       id="path14" />
  </g>
  <g
     id="g22"
     transform="rotate(3.7721679,32,32)">
    <path
       d="M 47.5,15.5 C 39.5,8.8 25,8.8 17,16.2 9.2,23.4 14.1,30.3 31.6,32 c 18,1.7 22.7,9.8 14.4,17.7 -8,7.5 -22.1,6.4 -30.6,-1.2"
       stroke="#0d1728"
       stroke-width="10"
       stroke-linecap="round"
       stroke-linejoin="round"
       id="path15" />
    <path
       style="baseline-shift:baseline;display:inline;overflow:visible;opacity:1;vector-effect:none;fill:url(#radialGradient1);stroke-linecap:round;stroke-linejoin:round;filter:url(#flow-glow);enable-background:accumulate;stop-color:#000000;stop-opacity:1"
       d="m 171.16248,-0.89550793 c -6.47194,-0.088549 -11.42339,1.396328 -16.11215,5.73225233 -2.23083,2.059231 -3.79538,4.27481 -4.33789,6.7871096 -0.54251,2.5123 0.21983,5.220458 1.91797,7.197265 3.39628,3.953616 9.60715,5.949996 18.70703,6.833985 0.003,3e-6 0.005,3e-6 0.008,0 8.59428,0.811682 13.50609,3.340054 15.00391,5.363281 0.74891,1.011613 0.89655,1.779348 0.62695,2.927734 -0.26895,1.145628 -1.16113,2.704828 -2.94922,4.410157 -3.28081,3.072427 -8.28457,4.534292 -13.51953,4.277343 -5.23766,-0.257081 -10.57395,-2.252748 -14.23633,-5.527343 -1.19398,-1.068235 -4.67171,-4.623622 -4.67171,-4.623622 0,0 2.57282,7.456419 5.16916,9.84402 4.83763,4.325405 8.39309,5.191776 14.87025,5.509695 6.47716,0.317919 11.64349,-0.827254 16.36277,-5.251578 0.005,-0.0052 0.0105,-0.0104 0.0156,-0.01563 2.35327,-2.239856 3.98444,-4.651512 4.60547,-7.296875 0.62103,-2.645363 0.0273,-5.491691 -1.61133,-7.705078 -3.27718,-4.426773 -9.71537,-6.797229 -19.12109,-7.685547 h 0.008 c -8.40012,-0.816011 -13.39042,-3.118459 -14.86914,-4.839844 -0.73936,-0.860692 -0.8321,-1.333784 -0.64649,-2.193359 0.18562,-0.859575 0.9324,-2.209231 2.60157,-3.7499996 l 0.002,-0.002 c 3.31111,-3.062776 8.54622,-4.786312 13.86328,-4.865234 5.31706,-0.07892 10.59519,1.504744 13.88476,4.259765 1.228,1.02879 4.00169,3.3456566 4.00169,3.3456566 0,0 -0.90351,-4.3194946 -4.82656,-7.9594676 -4.71046,-3.94492783 -9.45335,-4.70026423 -14.74661,-4.77268633 z"
       id="path1"
       sodipodi:nodetypes="scssccsscscccsccssccssccscccs" />
    <path
       style="baseline-shift:baseline;display:inline;overflow:visible;opacity:1;vector-effect:none;fill:url(#radialGradient22);stroke-linecap:round;stroke-linejoin:round;filter:url(#flow-glow);enable-background:accumulate;stop-color:#000000;stop-opacity:1"
       d="m 31.14535,8.3361067 c -6.471939,-0.088549 -11.423393,1.396328 -16.112147,5.7322523 -2.230833,2.059231 -3.795383,4.27481 -4.33789,6.78711 -0.542508,2.5123 0.219829,5.220458 1.917968,7.197265 3.396278,3.953616 9.607146,5.949996 18.707031,6.833985 0.0026,3e-6 0.0052,3e-6 0.0078,0 8.594279,0.811682 13.506091,3.340054 15.003906,5.363281 0.748908,1.011613 0.89655,1.779348 0.626953,2.927734 -0.268949,1.145628 -1.161134,2.704828 -2.949218,4.410157 -3.280811,3.072427 -8.28457,4.534292 -13.519532,4.277343 -5.237663,-0.257081 -11.476849,-1.72435 -15.139226,-4.998945 -1.19398,-1.068235 -4.671711,-4.623622 -4.671711,-4.623622 0,0 3.646293,7.737294 6.242635,10.124895 4.837623,4.325405 7.774787,5.350953 14.248223,4.964621 6.664407,-0.397729 12.094941,-1.091453 16.81422,-5.515777 0.0052,-0.0052 0.01045,-0.0104 0.01564,-0.01563 2.353267,-2.239856 3.98444,-4.651512 4.605469,-7.296875 0.621028,-2.645363 0.02726,-5.491691 -1.611328,-7.705078 C 47.716958,32.37205 41.27877,30.001594 31.873049,29.113276 h 0.0078 c -8.400114,-0.816011 -13.390418,-3.118459 -14.86914,-4.839844 -0.739361,-0.860692 -0.832102,-1.333784 -0.646485,-2.193359 0.185618,-0.859575 0.932396,-2.209231 2.601563,-3.75 l 0.002,-0.002 c 3.311109,-3.062776 8.546221,-4.786312 13.863281,-4.865234 5.31706,-0.07892 10.595189,1.504744 13.884766,4.259765 1.227994,1.02879 4.001687,3.345657 4.001687,3.345657 0,0 -0.903512,-4.319495 -4.82656,-7.959468 C 41.181501,9.1638652 36.438615,8.4085288 31.14535,8.3361067 Z"
       id="path16"
       sodipodi:nodetypes="scssccsscscccsccssccssccscccs" />
  </g>
  <path
     d="M14 24C24 18 39 43.5 50 38.5"
     stroke="url(#flow-trace)"
     stroke-width="1.7"
     stroke-linecap="round"
     id="path17" />
  <path
     d="M14.5 40.5C25 47 39 20.5 50 25.5"
     stroke="url(#flow-trace)"
     stroke-width="1.7"
     stroke-linecap="round"
     opacity="0.68"
     id="path18" />
  <circle
     cx="32"
     cy="32"
     r="4.7"
     fill="#070B14"
     stroke="#DDEBFF"
     stroke-opacity="0.22"
     stroke-width="1"
     id="circle18" />
  <circle
     cx="32"
     cy="32"
     r="2.35"
     fill="#5BD4FF"
     id="circle19" />
  <circle
     cx="17"
     cy="16.2"
     r="1.7"
     fill="#8DC4F0"
     id="circle20" />
  <circle
     cx="46"
     cy="49.7"
     r="1.7"
     fill="#B58CFF"
     id="circle21" />
  <metadata
     id="metadata21">
    <rdf:RDF>
      <cc:Work
         rdf:about="">
        <dc:title>STORM logo option - Scenario flow</dc:title>
      </cc:Work>
    </rdf:RDF>
  </metadata>
</svg>
