<svg viewBox="0 0 268 64" fill="none" xmlns="http://www.w3.org/2000/svg" role="img" aria-labelledby="wordmark-title wordmark-desc">
  <title id="wordmark-title">STORM</title>
  <desc id="wordmark-desc">STORM wordmark with the scenario-flow symbol.</desc>
  <defs>
    <linearGradient id="wm-flow" x1="13" y1="10" x2="51" y2="56" gradientUnits="userSpaceOnUse">
      <stop offset="0" stop-color="#8DC4F0"/>
      <stop offset="0.34" stop-color="#5BD4FF"/>
      <stop offset="0.68" stop-color="#4F8BFF"/>
      <stop offset="1" stop-color="#B58CFF"/>
    </linearGradient>
    <linearGradient id="wm-trace" x1="12" y1="18" x2="52" y2="46" gradientUnits="userSpaceOnUse">
      <stop offset="0" stop-color="#4FE4C1" stop-opacity="0.30"/>
      <stop offset="0.5" stop-color="#5BD4FF" stop-opacity="0.72"/>
      <stop offset="1" stop-color="#B58CFF" stop-opacity="0.34"/>
    </linearGradient>
    <radialGradient id="wm-field" cx="33" cy="31" r="33" gradientUnits="userSpaceOnUse">
      <stop offset="0" stop-color="#4F8BFF" stop-opacity="0.18"/>
      <stop offset="0.55" stop-color="#5BD4FF" stop-opacity="0.06"/>
      <stop offset="1" stop-color="#050810" stop-opacity="0"/>
    </radialGradient>
  </defs>

  <g>
    <rect x="2" y="2" width="60" height="60" rx="14" fill="#070B14"/>
    <rect x="2" y="2" width="60" height="60" rx="14" fill="url(#wm-field)" stroke="#1E2A44" stroke-width="1"/>

    <g opacity="0.72">
      <path d="M13 18C23 9.5 39 9 51 17.5" stroke="#1A2238" stroke-width="1.4" stroke-linecap="round"/>
      <path d="M12 32C23 20 41 44 52 32" stroke="#1A2238" stroke-width="1.4" stroke-linecap="round"/>
      <path d="M13 46C24 55 40 55 51 46" stroke="#1A2238" stroke-width="1.4" stroke-linecap="round"/>
    </g>

    <path d="M47.5 15.5C39.5 8.8 25 8.8 17 16.2C9.2 23.4 14.1 30.3 31.6 32C49.6 33.7 54.3 41.8 46 49.7C38 57.2 23.9 56.1 15.4 48.5"
          stroke="#0D1728" stroke-width="10" stroke-linecap="round" stroke-linejoin="round"/>
    <path d="M47.5 15.5C39.5 8.8 25 8.8 17 16.2C9.2 23.4 14.1 30.3 31.6 32C49.6 33.7 54.3 41.8 46 49.7C38 57.2 23.9 56.1 15.4 48.5"
          stroke="url(#wm-flow)" stroke-width="5.8" stroke-linecap="round" stroke-linejoin="round"/>

    <path d="M14 24C24 18 39 43.5 50 38.5" stroke="url(#wm-trace)" stroke-width="1.7" stroke-linecap="round"/>
    <path d="M14.5 40.5C25 47 39 20.5 50 25.5" stroke="url(#wm-trace)" stroke-width="1.7" stroke-linecap="round" opacity="0.68"/>

    <circle cx="32" cy="32" r="4.7" fill="#070B14" stroke="#DDEBFF" stroke-opacity="0.22" stroke-width="1"/>
    <circle cx="32" cy="32" r="2.35" fill="#5BD4FF"/>
  </g>

  <g transform="translate(82 43)">
    <text fill="#E6EDF7" font-family="Space Grotesk, Inter, system-ui, sans-serif" font-size="29" font-weight="600" letter-spacing="2.4">STORM</text>
    <path d="M2 8H178" stroke="#1E2A44" stroke-width="1"/>
    <path d="M2 8H70" stroke="#5BD4FF" stroke-width="1.3"/>
  </g>
</svg>
