<svg viewBox="0 0 240 64" fill="none" xmlns="http://www.w3.org/2000/svg" role="img" aria-label="STORM">
  <defs>
    <linearGradient id="storm-wm-g" x1="8" y1="10" x2="56" y2="54" gradientUnits="userSpaceOnUse">
      <stop offset="0" stop-color="#5BD4FF"/>
      <stop offset="0.55" stop-color="#4F8BFF"/>
      <stop offset="1" stop-color="#B58CFF"/>
    </linearGradient>
  </defs>
  <g transform="translate(0,0)">
    <rect x="2" y="2" width="60" height="60" rx="14" fill="none" stroke="#1E2A44" stroke-width="1"/>
    <path d="M 14 16 C 14 10, 50 10, 50 20 C 50 30, 14 30, 14 40 C 14 50, 50 50, 50 44"
          stroke="url(#storm-wm-g)" stroke-width="2.2" stroke-linecap="round" opacity="0.22" fill="none"/>
    <path d="M 14 20 C 14 14, 50 14, 50 24 C 50 34, 14 34, 14 44 C 14 54, 50 54, 50 48"
          stroke="url(#storm-wm-g)" stroke-width="2.4" stroke-linecap="round" opacity="0.55" fill="none"/>
    <path d="M 14 24 C 14 18, 50 18, 50 28 C 50 38, 14 38, 14 48"
          stroke="url(#storm-wm-g)" stroke-width="2.8" stroke-linecap="round" fill="none"/>
    <circle cx="32" cy="33" r="2.2" fill="#5BD4FF"/>
  </g>
  <g transform="translate(78,42)" fill="#E6EDF7" font-family="Space Grotesk, Inter, sans-serif" font-weight="600" font-size="28" letter-spacing="2.5">
    <text>STORM</text>
  </g>
</svg>
